<?xml version="1.0" encoding="UTF-8"?>
<svg xmlns="http://www.w3.org/2000/svg" xmlns:xlink="http://www.w3.org/1999/xlink" viewBox="0 0 1025 1025">
  <defs>
    <style>
      .cls-1 {
        fill: url(#_名称未設定グラデーション_34);
        stroke: #000;
        stroke-miterlimit: 10;
      }

      .cls-2 {
        fill: #1d448d;
      }
    </style>
    <linearGradient id="_名称未設定グラデーション_34" data-name="名称未設定グラデーション 34" x1="512.5" y1=".5" x2="512.5" y2="1024.5" gradientUnits="userSpaceOnUse">
      <stop offset="0" stop-color="#acd3f0"/>
      <stop offset="1" stop-color="#8f8bc2"/>
    </linearGradient>
  </defs>
  <g id="_レイヤー_2" data-name="レイヤー 2">
    <rect class="cls-1" x=".5" y=".5" width="1024" height="1024"/>
  </g>
  <g id="_レイヤー_3" data-name="レイヤー 3">
    <g>
      <path d="M71.76,338.25h153.08v57.62h-95.89v55.04h95.89v57.62h-95.89v138.46h-57.19v-308.73Z"/>
      <path d="M264.83,330.51h57.19v316.47h-57.19v-316.47Z"/>
      <path d="M374.04,418.66h57.19v119.11c0,40.85,12.9,62.35,43,62.35s43-21.07,43-59.77v-121.69h57.19v105.35c0,42.14-2.58,73.1-26.66,99.76-18.06,20.21-41.71,28.81-73.53,28.81-55.04,0-89.01-27.95-98.04-81.27-3.01-18.49-2.15-29.24-2.15-48.16v-104.49Z"/>
      <path class="cls-2" d="M690.95,362.33c0,20.21-16.34,36.55-36.55,36.55s-36.55-18.49-36.55-39.56c0-19.78,16.77-34.83,36.55-34.83s36.55,17.2,36.55,37.84ZM626.02,418.66h57.19v228.33h-57.19v-228.33Z"/>
      <path class="cls-2" d="M903.79,622.9c-20.21,19.78-41.71,30.1-70.52,30.1-58.05,0-108.79-49.88-108.79-119.97s48.16-120.4,107.5-120.4c27.52,0,51.17,10.32,71.81,30.96v-113.09h57.19v316.47h-57.19v-24.08ZM782.1,532.61c0,39.13,25.8,67.94,61.49,67.94s62.78-26.66,62.78-68.37-26.66-67.08-62.78-67.08-61.49,30.1-61.49,67.51Z"/>
    </g>
  </g>
</svg>